<?xml version="1.0" encoding="UTF-8"?><svg id="Layer_2" xmlns="http://www.w3.org/2000/svg" viewBox="0 0 344.03 87.9"><defs><style>.cls-1{fill:#00c6b1;}.cls-2{fill:#227c9d;}</style></defs><g id="Layer_1-2"><path class="cls-2" d="m5.8,65.18c-2.35-.95-4.29-2.28-5.8-4.01l3.81-5.11c2.86,2.81,5.78,4.22,8.76,4.22,1.62,0,2.96-.31,4.02-.93s1.58-1.55,1.58-2.8-.54-2.27-1.62-2.92c-1.08-.65-2.28-1.18-3.61-1.58-1.33-.41-2.18-.66-2.56-.77-2.97-.92-5.19-2.26-6.65-4.01-1.46-1.76-2.19-3.83-2.19-6.2,0-1.89.47-3.66,1.42-5.31.95-1.65,2.38-2.99,4.3-4.01,1.92-1.03,4.26-1.54,7.02-1.54,2.6,0,4.85.3,6.77.89,1.92.6,3.72,1.54,5.39,2.84l-3.49,5.43c-.97-.92-2.15-1.65-3.53-2.19-1.38-.54-2.64-.81-3.77-.81-1.41,0-2.57.32-3.49.97-.92.65-1.38,1.49-1.38,2.51-.05,1.25.41,2.18,1.38,2.8.97.62,2.54,1.29,4.7,1.99.92.27,1.51.46,1.78.57,2.7.87,4.81,2.07,6.33,3.61,1.51,1.54,2.27,3.56,2.27,6.04,0,3.35-1.2,6.15-3.61,8.39-2.41,2.24-5.85,3.36-10.34,3.36-2.65,0-5.15-.47-7.5-1.42Z"/><path class="cls-2" d="m69.18,31.56v34.3h-9.08v-4.95c-1.24,1.46-2.92,2.8-5.03,4.01-2.11,1.22-4.57,1.83-7.38,1.83-3.3,0-6.24-.69-8.84-2.07-2.6-1.38-4.65-3.42-6.16-6.12-1.51-2.7-2.27-5.97-2.27-9.81s.78-7.02,2.35-9.85c1.57-2.84,3.66-5.03,6.28-6.57,2.62-1.54,5.5-2.31,8.64-2.31,5.57,0,9.73,2.05,12.49,6.16l.65-4.62h8.35Zm-12.69,25.83c1.7-1.27,2.91-3.07,3.61-5.39v-7.46c-.65-2.11-1.91-3.81-3.77-5.11-1.87-1.3-4.01-1.95-6.45-1.95-2.87,0-5.3,1.01-7.3,3.04-2,2.03-3,4.61-3,7.75,0,2.05.49,3.92,1.46,5.6.97,1.68,2.27,3,3.89,3.97,1.62.97,3.38,1.46,5.27,1.46,2.49,0,4.58-.63,6.28-1.91Z"/><path class="cls-2" d="m83.95,6.85v59.01h-9.08V6.85h9.08Z"/><path class="cls-2" d="m116.63,56.3l4.14,6.73c-1.84,1.14-3.81,2.04-5.92,2.72-2.11.68-4.14,1.01-6.08,1.01-3.95,0-7.37-.78-10.26-2.35-2.89-1.57-5.11-3.73-6.65-6.49-1.54-2.76-2.31-5.92-2.31-9.49,0-3.35.86-6.43,2.6-9.24,1.73-2.81,4.08-5.04,7.06-6.69,2.97-1.65,6.22-2.47,9.73-2.47,4.65,0,8.52,1.37,11.6,4.09,3.08,2.73,5.14,6.58,6.16,11.56l-26.44,8.92c.92,1.41,2.13,2.49,3.65,3.24,1.51.76,3.19,1.13,5.03,1.13,2.54,0,5.11-.89,7.7-2.68Zm-15.45-16.14c-1.81,2-2.72,4.6-2.72,7.79,0,.6.03,1.05.08,1.38l18-6.41c-.7-1.67-1.73-3.05-3.08-4.14-1.35-1.08-3.11-1.62-5.27-1.62-2.87,0-5.2,1-7.02,3Z"/><path class="cls-2" d="m134.35,65.18c-2.35-.95-4.29-2.28-5.8-4.01l3.81-5.11c2.86,2.81,5.78,4.22,8.76,4.22,1.62,0,2.96-.31,4.02-.93s1.58-1.55,1.58-2.8-.54-2.27-1.62-2.92c-1.08-.65-2.28-1.18-3.61-1.58-1.33-.41-2.18-.66-2.56-.77-2.97-.92-5.19-2.26-6.65-4.01-1.46-1.76-2.19-3.83-2.19-6.2,0-1.89.47-3.66,1.42-5.31.95-1.65,2.38-2.99,4.3-4.01,1.92-1.03,4.26-1.54,7.02-1.54,2.6,0,4.85.3,6.77.89,1.92.6,3.72,1.54,5.39,2.84l-3.49,5.43c-.97-.92-2.15-1.65-3.53-2.19-1.38-.54-2.64-.81-3.77-.81-1.41,0-2.57.32-3.49.97-.92.65-1.38,1.49-1.38,2.51-.05,1.25.41,2.18,1.38,2.8.97.62,2.54,1.29,4.7,1.99.92.27,1.51.46,1.78.57,2.7.87,4.81,2.07,6.33,3.61,1.51,1.54,2.27,3.56,2.27,6.04,0,3.35-1.2,6.15-3.61,8.39-2.41,2.24-5.85,3.36-10.34,3.36-2.65,0-5.15-.47-7.5-1.42Z"/><path class="cls-2" d="m162.03,84.72c-1.73,0-3.07-.95-3.07-2.48h1.52c.06.71.56,1.28,1.55,1.28s1.56-.54,1.56-1.27c0-2.09-4.6-.74-4.6-3.93,0-1.52,1.21-2.47,2.98-2.47,1.66,0,2.83.87,2.95,2.36h-1.57c-.05-.59-.56-1.12-1.46-1.15-.82-.03-1.46.37-1.46,1.21,0,1.96,4.59.74,4.59,3.9,0,1.3-1.06,2.54-2.99,2.54Z"/><path class="cls-2" d="m171.21,77.65c1.16,0,1.96.55,2.38,1.11v-1h1.43v6.87h-1.43v-1.02c-.44.59-1.26,1.13-2.41,1.13-1.78,0-3.21-1.46-3.21-3.58s1.43-3.51,3.24-3.51Zm.3,1.23c-1.06,0-2.08.8-2.08,2.28s1.02,2.34,2.08,2.34,2.08-.84,2.08-2.32-1.01-2.31-2.08-2.31Z"/><path class="cls-2" d="m178.63,75.41h1.42v9.22h-1.42v-9.22Z"/><path class="cls-2" d="m186.61,84.74c-1.97,0-3.43-1.4-3.43-3.55s1.4-3.54,3.43-3.54,3.34,1.36,3.34,3.38c0,.24-.01.46-.05.7h-5.25c.1,1.13.91,1.82,1.96,1.82.87,0,1.36-.42,1.62-.96h1.53c-.39,1.2-1.47,2.16-3.15,2.16Zm-1.94-4.16h3.8c-.03-1.06-.86-1.73-1.92-1.73-.96,0-1.73.65-1.88,1.73Z"/><path class="cls-2" d="m195.58,84.74c-1.65,0-2.8-.97-2.87-2.22h1.47c.05.56.59,1.02,1.37,1.02s1.26-.35,1.26-.82c0-1.35-3.99-.57-3.99-3.09,0-1.1,1.02-1.98,2.64-1.98s2.58.83,2.65,2.21h-1.42c-.05-.6-.51-1.01-1.28-1.01s-1.16.31-1.16.77c0,1.38,3.88.61,3.95,3.09,0,1.16-1.01,2.03-2.63,2.03Z"/><path class="cls-2" d="m206.45,75.97h1.42v5.52c0,1.35.76,1.98,1.96,1.98s1.97-.64,1.97-1.98v-5.52h1.42v5.5c0,2.21-1.6,3.25-3.4,3.25s-3.37-1.05-3.37-3.25v-5.5Z"/><path class="cls-2" d="m220.61,77.65c1.81,0,3.23,1.4,3.23,3.51s-1.42,3.58-3.23,3.58c-1.13,0-1.94-.57-2.39-1.11v4.26h-1.42v-10.13h1.42v1.01c.44-.57,1.27-1.12,2.39-1.12Zm-.31,1.23c-1.06,0-2.08.84-2.08,2.31s1.02,2.32,2.08,2.32,2.09-.86,2.09-2.34-1.02-2.28-2.09-2.28Z"/><path class="cls-2" d="m226.99,75.41h1.42v9.22h-1.42v-9.22Z"/><path class="cls-2" d="m231.83,75.94c0-.51.4-.91.91-.91s.9.4.9.91-.4.91-.9.91-.91-.4-.91-.91Zm.19,1.82h1.42v6.87h-1.42v-6.87Z"/><path class="cls-2" d="m237.22,78.92h-.81v-1.16h.81v-.49c0-1.58.81-2.27,2.6-2.27v1.18c-.87,0-1.17.3-1.17,1.08v.49h1.27v1.16h-1.27v5.71h-1.43v-5.71Z"/><path class="cls-2" d="m243.15,78.92h-.81v-1.16h.81v-1.71h1.43v1.71h1.67v1.16h-1.67v3.8c0,.51.2.72.8.72h.87v1.18h-1.12c-1.22,0-1.98-.51-1.98-1.91v-3.8Z"/><path class="cls-2" d="m262.26,78.46h-1.71c-.46-.87-1.28-1.31-2.32-1.31-1.72,0-2.97,1.22-2.97,3.13s1.25,3.14,2.97,3.14c1.57,0,2.56-.95,2.77-2.41h-3.25v-1.13h4.77v1.11c-.26,2.01-1.96,3.71-4.29,3.71s-4.42-1.82-4.42-4.42,1.98-4.42,4.42-4.42c1.81,0,3.37.91,4.03,2.61Z"/><path class="cls-2" d="m271.88,84.63h-1.42v-.82c-.45.59-1.22.92-2.03.92-1.61,0-2.83-1.01-2.83-2.93v-4.04h1.41v3.83c0,1.26.69,1.91,1.72,1.91s1.73-.65,1.73-1.91v-3.83h1.42v6.87Z"/><path class="cls-2" d="m278.25,77.65c1.16,0,1.96.55,2.38,1.11v-1h1.43v6.87h-1.43v-1.02c-.44.59-1.26,1.13-2.41,1.13-1.78,0-3.21-1.46-3.21-3.58s1.43-3.51,3.24-3.51Zm.3,1.23c-1.06,0-2.08.8-2.08,2.28s1.02,2.34,2.08,2.34,2.08-.84,2.08-2.32-1.01-2.31-2.08-2.31Z"/><path class="cls-2" d="m287.09,84.63h-1.42v-6.87h1.42v1c.4-.69,1.08-1.11,2.06-1.11v1.47h-.36c-1.05,0-1.69.44-1.69,1.89v3.61Z"/><path class="cls-2" d="m294.97,77.65c1.16,0,1.96.55,2.38,1.11v-1h1.43v6.87h-1.43v-1.02c-.44.59-1.26,1.13-2.41,1.13-1.78,0-3.21-1.46-3.21-3.58s1.43-3.51,3.24-3.51Zm.3,1.23c-1.06,0-2.08.8-2.08,2.28s1.02,2.34,2.08,2.34,2.08-.84,2.08-2.32-1.01-2.31-2.08-2.31Z"/><path class="cls-2" d="m307.26,80.79c0-1.26-.69-1.91-1.72-1.91s-1.73.65-1.73,1.91v3.84h-1.42v-6.87h1.42v.78c.46-.56,1.22-.9,2.04-.9,1.61,0,2.82,1.01,2.82,2.93v4.05h-1.41v-3.84Z"/><path class="cls-2" d="m312.44,78.92h-.81v-1.16h.81v-1.71h1.43v1.71h1.67v1.16h-1.67v3.8c0,.51.2.72.8.72h.87v1.18h-1.12c-1.22,0-1.98-.51-1.98-1.91v-3.8Z"/><path class="cls-2" d="m321.54,84.74c-1.97,0-3.43-1.4-3.43-3.55s1.4-3.54,3.43-3.54,3.34,1.36,3.34,3.38c0,.24-.01.46-.05.7h-5.25c.1,1.13.91,1.82,1.96,1.82.87,0,1.36-.42,1.62-.96h1.53c-.39,1.2-1.47,2.16-3.15,2.16Zm-1.94-4.16h3.8c-.03-1.06-.86-1.73-1.92-1.73-.96,0-1.73.65-1.88,1.73Z"/><path class="cls-2" d="m330.97,84.74c-1.97,0-3.43-1.4-3.43-3.55s1.4-3.54,3.43-3.54,3.34,1.36,3.34,3.38c0,.24-.01.46-.05.7h-5.25c.1,1.13.91,1.82,1.96,1.82.87,0,1.36-.42,1.62-.96h1.53c-.39,1.2-1.47,2.16-3.15,2.16Zm-1.94-4.16h3.8c-.03-1.06-.86-1.73-1.92-1.73-.96,0-1.73.65-1.88,1.73Z"/><path class="cls-2" d="m340.22,77.65c.9,0,1.84.42,2.37,1.07v-3.32h1.43v9.22h-1.43v-1.03c-.44.62-1.26,1.15-2.38,1.15-1.81,0-3.24-1.46-3.24-3.58s1.43-3.51,3.25-3.51Zm.29,1.23c-1.06,0-2.08.8-2.08,2.28s1.02,2.34,2.08,2.34,2.08-.84,2.08-2.32-1.01-2.31-2.08-2.31Z"/><rect class="cls-2" y="80.95" width="155.8" height="1"/><path class="cls-2" d="m184.63,65.66c-2.19.73-4.39,1.1-6.61,1.1-3.78,0-7.12-.73-10.02-2.19-2.89-1.46-5.12-3.55-6.69-6.28-1.57-2.73-2.35-5.93-2.35-9.61s.84-6.8,2.52-9.53c1.67-2.73,3.91-4.83,6.69-6.28,2.78-1.46,5.77-2.19,8.96-2.19,5.41,0,9.87,1.46,13.38,4.38l-4.54,5.92c-1.03-.81-2.23-1.5-3.61-2.07-1.38-.57-2.85-.85-4.42-.85-2.76,0-5.1,1.01-7.01,3.04-1.92,2.03-2.88,4.55-2.88,7.58s1.01,5.56,3.04,7.58c2.03,2.03,4.61,3.04,7.75,3.04,2.7,0,4.97-.76,6.81-2.27l4.54,5.68c-1.51,1.25-3.36,2.23-5.56,2.96Z"/><rect class="cls-2" x="190.19" y="30.34" width="67.97" height="36.09" rx="18.05" ry="18.05"/><circle class="cls-1" cx="240.12" cy="48.39" r="13.8"/><path class="cls-2" d="m301.29,6.85v59.01h-9.08v-4.62c-3.78,3.68-8.27,5.52-13.46,5.52-3.19,0-6.07-.76-8.64-2.27-2.57-1.51-4.58-3.68-6.04-6.49-1.46-2.81-2.19-6.08-2.19-9.81s.77-6.97,2.31-9.73c1.54-2.76,3.68-4.85,6.41-6.28,2.73-1.43,5.82-2.15,9.28-2.15,2.49,0,4.84.47,7.06,1.42,2.22.95,4,2.23,5.35,3.85V6.85h9Zm-12.98,50.25c1.84-1.3,3.14-3.11,3.89-5.43v-7.3c-.65-2.11-1.93-3.84-3.85-5.19s-4.15-2.03-6.69-2.03c-1.89,0-3.65.47-5.27,1.42-1.62.95-2.92,2.24-3.89,3.89-.97,1.65-1.46,3.5-1.46,5.56s.49,3.92,1.46,5.6c.97,1.68,2.27,3,3.89,3.97s3.38,1.46,5.27,1.46c2.6,0,4.81-.65,6.65-1.95Z"/><path class="cls-2" d="m333.97,56.3l4.14,6.73c-1.84,1.14-3.81,2.04-5.92,2.72-2.11.68-4.14,1.01-6.08,1.01-3.95,0-7.37-.78-10.26-2.35-2.89-1.57-5.11-3.73-6.65-6.49-1.54-2.76-2.31-5.92-2.31-9.49,0-3.35.86-6.43,2.6-9.24,1.73-2.81,4.08-5.04,7.06-6.69,2.97-1.65,6.22-2.47,9.73-2.47,4.65,0,8.52,1.37,11.6,4.09,3.08,2.73,5.14,6.58,6.16,11.56l-26.44,8.92c.92,1.41,2.13,2.49,3.65,3.24,1.51.76,3.19,1.13,5.03,1.13,2.54,0,5.11-.89,7.71-2.68Zm-15.45-16.14c-1.81,2-2.72,4.6-2.72,7.79,0,.6.03,1.05.08,1.38l18-6.41c-.7-1.67-1.73-3.05-3.08-4.14-1.35-1.08-3.11-1.62-5.27-1.62-2.87,0-5.2,1-7.02,3Z"/><path class="cls-2" d="m310.95,24.67c-1.13,0-2-.87-2-1.99s.87-2,2-2c1.06,0,1.93.87,1.93,2s-.87,1.99-1.93,1.99Z"/><path class="cls-2" d="m324.04,6.56c3.28,0,5.53,1.67,6.56,3.51v-3.22h2.96v17.63h-2.96v-3.28c-1.06,1.9-3.35,3.57-6.59,3.57-4.7,0-8.33-3.7-8.33-9.17s3.63-9.04,8.36-9.04Zm.58,2.54c-3.22,0-5.95,2.35-5.95,6.5s2.73,6.59,5.95,6.59,5.98-2.41,5.98-6.56-2.77-6.53-5.98-6.53Z"/><path class="cls-2" d="m338.03,2c0-1.13.87-2,1.99-2,1.06,0,1.93.87,1.93,2s-.87,1.99-1.93,1.99c-1.13,0-1.99-.87-1.99-1.99Zm.48,4.86h2.93v17.63h-2.93V6.85Z"/></g></svg>